<svg width="25" height="25" viewBox="0 0 25 25" fill="none" xmlns="http://www.w3.org/2000/svg">
<path d="M20.7353 3.76472L18.85 5.65005C17.3232 4.12311 15.3142 3.1728 13.1653 2.96104C11.0164 2.74927 8.86058 3.28916 7.06511 4.48871C5.26965 5.68825 3.94565 7.47324 3.31872 9.53953C2.69178 11.6058 2.8007 13.8256 3.62691 15.8206C4.45311 17.8156 5.9455 19.4623 7.84977 20.4804C9.75404 21.4984 11.9524 21.8246 14.0702 21.4035C16.1881 20.9824 18.0944 19.84 19.4644 18.1709C20.8343 16.5018 21.5832 14.4094 21.5833 12.2501H24.25C24.25 15.0263 23.2873 17.7167 21.5261 19.8627C19.7648 22.0088 17.3139 23.4778 14.591 24.0194C11.8681 24.561 9.04159 24.1417 6.59316 22.833C4.14472 21.5242 2.22582 19.407 1.16341 16.8421C0.101002 14.2771 -0.0391835 11.4232 0.766742 8.76645C1.57267 6.10974 3.27484 3.81466 5.58323 2.27227C7.89161 0.729876 10.6634 0.0356015 13.4263 0.30774C16.1892 0.57988 18.7722 1.80159 20.7353 3.76472Z" fill="white"/>
</svg>
