<svg width="19" height="20" viewBox="0 0 19 20" fill="none" xmlns="http://www.w3.org/2000/svg">
<path d="M16.1284 6.27248C16.3104 6.27238 16.4897 6.31641 16.6509 6.40081C16.8121 6.48521 16.9505 6.60745 17.0541 6.75705L17.1141 6.85607C17.6602 7.74381 17.9657 8.75848 18.0005 9.80018C18.0353 10.8419 17.7982 11.8747 17.3125 12.7969C16.8268 13.7191 16.1092 14.4989 15.2306 15.0595C14.3519 15.6201 13.3423 15.9421 12.3013 15.994L12.0028 16.0015L8.33474 16L9.4179 17.0831C9.60885 17.2737 9.72495 17.5266 9.74506 17.7956C9.76516 18.0647 9.68792 18.332 9.52742 18.5488L9.4179 18.6749C9.2272 18.8652 8.97453 18.9808 8.70583 19.0006C8.43713 19.0204 8.17024 18.9432 7.95368 18.7829L7.82766 18.6749L4.8242 15.6714C4.63365 15.4809 4.51779 15.2283 4.49769 14.9596C4.47759 14.6909 4.55459 14.4239 4.71469 14.2072L4.8242 14.0797L7.82766 11.0777C8.02869 10.8782 8.29754 10.7619 8.58056 10.752C8.86358 10.742 9.13995 10.8391 9.35452 11.0239C9.56908 11.2088 9.70606 11.4677 9.7381 11.7491C9.77015 12.0305 9.69492 12.3136 9.52742 12.5419L9.4179 12.6679L8.33624 13.7496H12.0028C12.9548 13.7498 13.8712 13.3879 14.5663 12.7374C15.2613 12.087 15.683 11.1965 15.7459 10.2466L15.7534 10.0005C15.7534 9.25793 15.5373 8.56633 15.1668 7.98424C15.0625 7.81357 15.0056 7.61819 15.002 7.41822C14.9983 7.21825 15.048 7.02092 15.146 6.84655C15.2439 6.67218 15.3866 6.52708 15.5593 6.42617C15.732 6.32527 15.9284 6.27222 16.1284 6.27248ZM8.58227 1.32623C8.77278 1.13567 9.02535 1.01982 9.29406 0.999718C9.56276 0.97962 9.82976 1.05662 10.0465 1.21671L10.1725 1.32623L13.176 4.32819L13.2855 4.4557C13.4268 4.64687 13.5039 4.87788 13.5058 5.1156C13.5077 5.35331 13.4342 5.58552 13.296 5.77891L13.176 5.91993L10.1725 8.92338L10.0465 9.0314C9.85549 9.17293 9.62456 9.25032 9.38685 9.25247C9.14913 9.25463 8.91684 9.18144 8.72329 9.0434L8.58227 8.92338L8.47276 8.79736C8.3311 8.60606 8.25377 8.37475 8.25189 8.13672C8.25 7.89869 8.32365 7.66619 8.46225 7.47266L8.58227 7.33164L9.66394 6.24848H6.00188C5.04966 6.24833 4.13303 6.61038 3.43793 7.26119C2.74282 7.912 2.32128 8.80284 2.25882 9.75301L2.25131 10.0005C2.25131 10.6321 2.40734 11.2277 2.68338 11.7513L2.8484 12.0274C2.99979 12.2825 3.0443 12.5871 2.97224 12.8748C2.90018 13.1626 2.71738 13.4103 2.46363 13.564C2.20987 13.7176 1.9057 13.7649 1.61728 13.6954C1.32887 13.626 1.07957 13.4454 0.923613 13.193C0.366737 12.3067 0.0513645 11.2902 0.00880794 10.2444C-0.0337486 9.19853 0.197991 8.15974 0.681018 7.23115C1.16405 6.30255 1.88156 5.51645 2.76232 4.95089C3.64308 4.38532 4.65646 4.05997 5.70184 4.00714L6.00188 3.99964L9.66244 3.99814L8.58227 2.91797L8.47276 2.79045C8.31266 2.57371 8.23566 2.30672 8.25576 2.03802C8.27586 1.76931 8.39172 1.51674 8.58227 1.32623Z" fill="white"/>
</svg>
