<svg width="21" height="21" viewBox="0 0 21 21" fill="none" xmlns="http://www.w3.org/2000/svg">
<path fill-rule="evenodd" clip-rule="evenodd" d="M8.04303 18.6806C8.0659 18.7024 8.08403 18.7288 8.09629 18.7579C8.10854 18.7871 8.11467 18.8185 8.11428 18.8501C8.11389 18.8817 8.10699 18.913 8.09402 18.9418C8.08105 18.9707 8.06228 18.9966 8.03888 19.0178L7.11226 19.8813C7.01643 19.9698 6.8898 20.0174 6.75937 20.014C6.62894 20.0105 6.50502 19.9562 6.41403 19.8627L2.39157 15.6964C2.20375 15.5019 2.20339 15.1878 2.39133 14.9943L6.43603 10.8284C6.62372 10.6352 6.93825 10.6258 7.13743 10.8064L8.07285 11.6544C8.17305 11.7452 8.17464 11.8929 8.07529 11.9853L5.49572 14.3876C5.49572 14.3876 11.9765 14.4033 14.2582 14.3954C16.5398 14.3876 18.3441 12.3214 18.3441 10.1552C18.3441 9.27366 17.6625 7.99964 17.6625 7.99964C17.6016 7.87867 17.6291 7.70099 17.7215 7.60507L18.7736 6.51263C18.8669 6.41561 18.9901 6.4354 19.0475 6.55711C19.0475 6.55711 20.1732 8.8362 20.1732 10.0473C20.1732 13.4731 17.5136 16.2649 14.2427 16.2649C10.9716 16.2649 5.57637 16.2894 5.57637 16.2894L8.04303 18.6806Z" fill="white"/>
<path fill-rule="evenodd" clip-rule="evenodd" d="M12.3034 1.67488C12.2805 1.65302 12.2624 1.62669 12.2501 1.59752C12.2379 1.56835 12.2318 1.53698 12.2322 1.50534C12.2325 1.47371 12.2394 1.44249 12.2524 1.41364C12.2654 1.38478 12.2842 1.3589 12.3076 1.33762L13.2342 0.474176C13.33 0.385629 13.4566 0.338016 13.5871 0.341486C13.7175 0.344955 13.8414 0.399233 13.9324 0.49275L17.9549 4.65904C18.1427 4.85357 18.143 5.16762 17.9551 5.36117L13.9104 9.52709C13.7227 9.72029 13.4082 9.7297 13.209 9.54909L12.2735 8.70105C12.1734 8.61025 12.1718 8.46252 12.271 8.37014L14.8507 5.96788C14.8507 5.96788 8.36991 5.95212 6.08826 5.96006C3.8066 5.96788 2.00237 8.0341 2.00237 10.2003C2.00237 11.0818 2.68399 12.3558 2.68399 12.3558C2.74484 12.4768 2.71735 12.6545 2.62497 12.7504L1.57285 13.8428C1.4795 13.9398 1.35632 13.9201 1.29889 13.7983C1.29889 13.7983 0.173218 11.5194 0.173218 10.3082C0.173218 6.8824 2.83282 4.09058 6.10377 4.09058C9.37485 4.09058 14.7701 4.06602 14.7701 4.06602L12.3034 1.67488Z" fill="white"/>
<path fill-rule="evenodd" clip-rule="evenodd" d="M10.2987 7.30911L11.0966 7.32695C11.2316 7.33 11.3426 7.44242 11.3443 7.57586L11.3929 11.28C11.3934 11.312 11.4002 11.3435 11.413 11.3728C11.4258 11.4021 11.4443 11.4285 11.4674 11.4506C11.4905 11.4726 11.5178 11.4899 11.5476 11.5013C11.5775 11.5127 11.6093 11.5181 11.6412 11.5171L12.1427 11.5045C12.1747 11.5035 12.2065 11.509 12.2364 11.5206C12.2662 11.5322 12.2934 11.5497 12.3163 11.572C12.3392 11.5943 12.3574 11.621 12.3698 11.6505C12.3821 11.68 12.3885 11.7117 12.3883 11.7437L12.3896 12.3349C12.3899 12.3999 12.3645 12.4623 12.3189 12.5087C12.2734 12.555 12.2113 12.5814 12.1464 12.5822L9.56315 12.6002C9.53121 12.6004 9.49955 12.5943 9.46999 12.5822C9.44043 12.5701 9.41355 12.5523 9.3909 12.5298C9.36826 12.5072 9.35029 12.4804 9.33803 12.451C9.32578 12.4215 9.31948 12.3898 9.31949 12.3579L9.31925 11.7823C9.31925 11.6476 9.42886 11.5383 9.56315 11.5383H10.083C10.1478 11.5383 10.21 11.5127 10.2562 11.4671C10.3023 11.4214 10.3286 11.3595 10.3293 11.2947L10.35 9.22148L9.61105 9.94391L8.86346 9.02731L10.2987 7.30911Z" fill="white"/>
</svg>
