<svg width="19" height="18" viewBox="0 0 19 18" fill="none" xmlns="http://www.w3.org/2000/svg">
<path d="M9.94884 2.475C10.0662 2.39103 10.2036 2.33932 10.3472 2.32504C10.4908 2.31076 10.6357 2.3344 10.7673 2.39361C10.8989 2.45281 11.0127 2.54551 11.0973 2.66245C11.1819 2.77938 11.2343 2.91646 11.2493 3.06L11.2538 3.1455V14.8545C11.2539 14.9988 11.2161 15.1406 11.1442 15.2658C11.0723 15.3909 10.9688 15.495 10.8441 15.5677C10.7194 15.6403 10.5778 15.679 10.4334 15.6798C10.2891 15.6806 10.1471 15.6435 10.0216 15.5723L9.94959 15.5258L5.01384 12H3.00384C2.62541 12.0001 2.26092 11.8572 1.98343 11.5999C1.70595 11.3426 1.53598 10.9899 1.5076 10.6125L1.50384 10.5V7.5C1.50373 7.12157 1.64665 6.75708 1.90397 6.47959C2.16129 6.2021 2.51398 6.03213 2.89134 6.00375L3.00384 6H5.01384L9.94884 2.475ZM14.7541 5.08725C15.3051 5.57922 15.7459 6.18215 16.0474 6.85649C16.349 7.53082 16.5045 8.26131 16.5038 9C16.5045 9.73869 16.349 10.4692 16.0474 11.1435C15.7459 11.8178 15.3051 12.4208 14.7541 12.9127C14.6809 12.9795 14.5952 13.0311 14.5019 13.0646C14.4087 13.098 14.3097 13.1127 14.2108 13.1077C14.1118 13.1027 14.0148 13.0781 13.9254 13.0354C13.836 12.9927 13.756 12.9327 13.6899 12.8589C13.6238 12.7851 13.573 12.6989 13.5404 12.6054C13.5078 12.5118 13.4941 12.4127 13.5 12.3138C13.5059 12.2149 13.5314 12.1182 13.5749 12.0292C13.6184 11.9401 13.6792 11.8606 13.7536 11.7952C14.1475 11.444 14.4625 11.0133 14.678 10.5315C14.8935 10.0497 15.0045 9.52777 15.0038 9C15.0038 7.89 14.5223 6.8925 13.7536 6.20475C13.6792 6.13935 13.6184 6.05985 13.5749 5.97085C13.5314 5.88185 13.5059 5.7851 13.5 5.6862C13.4941 5.5873 13.5078 5.48821 13.5404 5.39465C13.573 5.30108 13.6238 5.2149 13.6899 5.14109C13.756 5.06727 13.836 5.00728 13.9254 4.96459C14.0148 4.92189 14.1118 4.89732 14.2108 4.89232C14.3097 4.88731 14.4087 4.90196 14.5019 4.93542C14.5952 4.96888 14.6809 5.02048 14.7541 5.08725ZM13.2541 6.76425C13.5688 7.0453 13.8206 7.38971 13.9929 7.77488C14.1652 8.16006 14.2541 8.5773 14.2538 8.99925C14.2544 9.42146 14.1656 9.83901 13.9932 10.2245C13.8209 10.6099 13.569 10.9546 13.2541 11.2358C13.1119 11.3621 12.927 11.4296 12.7368 11.4247C12.5466 11.4198 12.3654 11.3429 12.2299 11.2094C12.0943 11.076 12.0145 10.896 12.0067 10.7059C11.9988 10.5159 12.0635 10.3299 12.1876 10.1858L12.2536 10.1182C12.5611 9.84225 12.7538 9.444 12.7538 9C12.7547 8.61593 12.6075 8.2463 12.3428 7.968L12.2536 7.88175C12.1792 7.81635 12.1184 7.73685 12.0749 7.64785C12.0314 7.55885 12.0059 7.4621 12 7.3632C11.9941 7.2643 12.0078 7.16521 12.0404 7.07164C12.073 6.97808 12.1238 6.8919 12.1899 6.81809C12.256 6.74427 12.336 6.68428 12.4254 6.64159C12.5148 6.59889 12.6118 6.57432 12.7108 6.56932C12.8097 6.56431 12.9087 6.57896 13.0019 6.61242C13.0952 6.64588 13.1809 6.69748 13.2541 6.76425Z" fill="white"/>
</svg>
