<svg width="19" height="18" viewBox="0 0 19 18" fill="none" xmlns="http://www.w3.org/2000/svg">
<path d="M9.94885 2.475C10.0662 2.39103 10.2036 2.33932 10.3472 2.32504C10.4908 2.31076 10.6357 2.3344 10.7673 2.39361C10.8989 2.45281 11.0127 2.54551 11.0973 2.66245C11.1819 2.77938 11.2343 2.91646 11.2493 3.06L11.2538 3.1455V14.8545C11.2539 14.9988 11.2161 15.1406 11.1442 15.2658C11.0723 15.3909 10.9688 15.495 10.8441 15.5677C10.7194 15.6403 10.5778 15.679 10.4335 15.6798C10.2891 15.6806 10.1471 15.6435 10.0216 15.5723L9.9496 15.5258L5.01384 12H3.00385C2.62541 12.0001 2.26092 11.8572 1.98343 11.5999C1.70595 11.3426 1.53598 10.9899 1.5076 10.6125L1.50384 10.5V7.5C1.50391 7.1217 1.64692 6.75739 1.90422 6.48006C2.16152 6.20274 2.51411 6.03287 2.89135 6.0045L3.00385 6H5.01384L9.94885 2.475ZM13.1933 6.879L14.2538 7.9395L15.3143 6.879C15.3835 6.80737 15.4663 6.75023 15.5578 6.71092C15.6493 6.67162 15.7477 6.65093 15.8473 6.65006C15.9469 6.6492 16.0456 6.66817 16.1378 6.70588C16.23 6.74359 16.3137 6.79928 16.3841 6.8697C16.4546 6.94012 16.5103 7.02386 16.548 7.11603C16.5857 7.20821 16.6046 7.30697 16.6038 7.40655C16.6029 7.50614 16.5822 7.60455 16.5429 7.69605C16.5036 7.78756 16.4465 7.87032 16.3748 7.9395L15.3143 9L16.3748 10.0605C16.5156 10.2011 16.5947 10.3919 16.5947 10.5909C16.5948 10.7898 16.5159 10.9806 16.3752 11.1214C16.2346 11.2621 16.0438 11.3412 15.8449 11.3413C15.6459 11.3413 15.4551 11.2624 15.3143 11.1217L14.2538 10.0597L13.1933 11.121C13.0526 11.2616 12.8618 11.3406 12.6628 11.3405C12.4639 11.3405 12.2731 11.2614 12.1325 11.1206C11.9918 10.9799 11.9129 10.7891 11.9129 10.5901C11.913 10.3912 11.9921 10.2004 12.1328 10.0597L13.1933 9L12.1328 7.9395C12.0612 7.87032 12.0041 7.78756 11.9648 7.69605C11.9255 7.60455 11.9048 7.50614 11.9039 7.40655C11.903 7.30697 11.922 7.20821 11.9597 7.11603C11.9974 7.02386 12.0531 6.94012 12.1235 6.8697C12.194 6.79928 12.2777 6.74359 12.3699 6.70588C12.4621 6.66817 12.5608 6.6492 12.6604 6.65006C12.76 6.65093 12.8584 6.67162 12.9499 6.71092C13.0414 6.75023 13.1242 6.80737 13.1933 6.879Z" fill="white"/>
</svg>
